<svg fill="none" xmlns="http://www.w3.org/2000/svg"  viewBox="0 0 153 50">
<path d="M10.9725 14.9846H0V8.63698C5.93765 8.42885 11.2503 6.2436 12.2225 0.0346866H20.6255V48.7694H10.9378V14.9846H10.9725ZM25.3479 30.663C25.3479 19.8408 32.4314 11.516 43.4386 11.516C52.8486 11.516 58.6474 16.9618 59.8974 24.801H50.4874C49.8624 21.6098 47.3623 19.2164 43.8553 19.2164C38.0565 19.2164 35.1051 23.6563 35.1051 30.663C35.1051 37.6697 37.8482 42.1096 43.7164 42.1096C47.6054 42.1096 50.3485 40.0631 51.0083 35.9701H60.2793C59.6543 43.6705 53.6472 49.81 43.9595 49.81C32.5008 49.81 25.3826 41.4852 25.3826 30.663H25.3479ZM64.7586 0H74.3769V48.7347H64.7586V0ZM102.398 48.7347V44.503H102.19C99.7248 47.8329 96.8775 49.7407 91.8079 49.7407C83.7522 49.7407 79.2382 44.5723 79.2382 36.6638V12.4872H88.787V35.0335C88.787 39.2653 90.6968 41.5893 94.7941 41.5893C99.3081 41.5893 102.086 38.19 102.086 33.4032V12.4872H111.704V48.7347H102.398ZM125.871 44.2255H125.732V48.7347H116.461V0H126.08V16.8924H126.288C128.267 13.84 131.392 11.516 136.392 11.516C145.525 11.516 152.018 19.3552 152.018 30.663C152.018 41.9708 145.802 49.81 136.67 49.81C131.566 49.81 127.989 47.6248 125.837 44.2255H125.871ZM142.261 30.663C142.261 23.9685 139.587 19.2858 134.205 19.2858C128.128 19.2858 125.871 24.1419 125.871 30.8711C125.871 37.6003 129.205 41.7627 134.552 41.7627C139.518 41.7627 142.261 37.6697 142.261 30.663Z" fill="white"/>
</svg>
