<svg fill="none" xmlns="http://www.w3.org/2000/svg">
<path d="M268.387 497.465H221.341V470.248C246.799 469.355 269.579 459.986 273.747 433.364H309.777V642.324H268.239V497.465H268.387ZM330.025 564.689C330.025 518.286 360.397 482.592 407.593 482.592C447.94 482.592 472.803 505.942 478.163 539.554H437.816C435.136 525.871 424.416 515.609 409.379 515.609C384.516 515.609 371.861 534.646 371.861 564.689C371.861 594.731 383.623 613.768 408.784 613.768C425.459 613.768 437.22 604.994 440.049 587.444H479.801C477.121 620.461 451.364 646.786 409.826 646.786C360.695 646.786 330.174 611.091 330.174 564.689H330.025ZM499.007 433.215H540.247V642.175H499.007V433.215ZM660.395 642.175V624.031H659.502C648.931 638.308 636.723 646.488 614.986 646.488C580.445 646.488 561.091 624.328 561.091 590.418V486.756H602.033V583.428C602.033 601.573 610.222 611.538 627.79 611.538C647.145 611.538 659.055 596.962 659.055 576.438V486.756H700.296V642.175H660.395ZM761.04 622.841H760.444V642.175H720.693V433.215H761.933V505.644H762.826C771.313 492.557 784.712 482.592 806.151 482.592C845.307 482.592 873.148 516.204 873.148 564.689C873.148 613.174 846.498 646.786 807.342 646.786C785.457 646.786 770.122 637.416 760.891 622.841H761.04ZM831.312 564.689C831.312 535.985 819.848 515.907 796.772 515.907C770.717 515.907 761.04 536.728 761.04 565.581C761.04 594.434 775.332 612.281 798.26 612.281C819.551 612.281 831.312 594.731 831.312 564.689Z" fill="black"/>
</svg>
