<svg width="800" height="600" viewBox="0 0 800 600" fill="none" xmlns="http://www.w3.org/2000/svg">
  <rect width="800" height="600" fill="#F8FAFC" stroke="#E2E8F0" stroke-width="2" stroke-dasharray="5,5"/>
  <rect x="50" y="50" width="700" height="40" fill="#3B82F6" rx="4"/>
  <rect x="50" y="110" width="200" height="20" fill="#94A3B8" rx="2"/>
  <rect x="270" y="110" width="150" height="20" fill="#94A3B8" rx="2"/>
  <rect x="440" y="110" width="100" height="20" fill="#94A3B8" rx="2"/>
  <rect x="560" y="110" width="100" height="20" fill="#94A3B8" rx="2"/>
  
  <rect x="50" y="150" width="700" height="300" fill="#FFFFFF" stroke="#E2E8F0" stroke-width="1" rx="4"/>
  <rect x="70" y="170" width="100" height="80" fill="#F1F5F9" stroke="#CBD5E1" stroke-width="1" rx="2"/>
  <rect x="190" y="170" width="100" height="80" fill="#F1F5F9" stroke="#CBD5E1" stroke-width="1" rx="2"/>
  <rect x="310" y="170" width="100" height="80" fill="#F1F5F9" stroke="#CBD5E1" stroke-width="1" rx="2"/>
  <rect x="430" y="170" width="100" height="80" fill="#F1F5F9" stroke="#CBD5E1" stroke-width="1" rx="2"/>
  <rect x="550" y="170" width="100" height="80" fill="#F1F5F9" stroke="#CBD5E1" stroke-width="1" rx="2"/>
  <rect x="670" y="170" width="60" height="80" fill="#F1F5F9" stroke="#CBD5E1" stroke-width="1" rx="2"/>
  
  <rect x="70" y="270" width="100" height="80" fill="#F1F5F9" stroke="#CBD5E1" stroke-width="1" rx="2"/>
  <rect x="190" y="270" width="100" height="80" fill="#F1F5F9" stroke="#CBD5E1" stroke-width="1" rx="2"/>
  <rect x="310" y="270" width="100" height="80" fill="#F1F5F9" stroke="#CBD5E1" stroke-width="1" rx="2"/>
  <rect x="430" y="270" width="100" height="80" fill="#F1F5F9" stroke="#CBD5E1" stroke-width="1" rx="2"/>
  <rect x="550" y="270" width="100" height="80" fill="#F1F5F9" stroke="#CBD5E1" stroke-width="1" rx="2"/>
  <rect x="670" y="270" width="60" height="80" fill="#F1F5F9" stroke="#CBD5E1" stroke-width="1" rx="2"/>
  
  <rect x="70" y="370" width="100" height="80" fill="#F1F5F9" stroke="#CBD5E1" stroke-width="1" rx="2"/>
  <rect x="190" y="370" width="100" height="80" fill="#F1F5F9" stroke="#CBD5E1" stroke-width="1" rx="2"/>
  <rect x="310" y="370" width="100" height="80" fill="#F1F5F9" stroke="#CBD5E1" stroke-width="1" rx="2"/>
  <rect x="430" y="370" width="100" height="80" fill="#F1F5F9" stroke="#CBD5E1" stroke-width="1" rx="2"/>
  <rect x="550" y="370" width="100" height="80" fill="#F1F5F9" stroke="#CBD5E1" stroke-width="1" rx="2"/>
  <rect x="670" y="370" width="60" height="80" fill="#F1F5F9" stroke="#CBD5E1" stroke-width="1" rx="2"/>
  
  <rect x="50" y="470" width="700" height="80" fill="#F8FAFC" stroke="#E2E8F0" stroke-width="1" rx="4"/>
  <rect x="70" y="490" width="60" height="20" fill="#94A3B8" rx="2"/>
  <rect x="150" y="490" width="80" height="20" fill="#94A3B8" rx="2"/>
  <rect x="250" y="490" width="60" height="20" fill="#94A3B8" rx="2"/>
  <rect x="330" y="490" width="70" height="20" fill="#94A3B8" rx="2"/>
  <rect x="420" y="490" width="60" height="20" fill="#94A3B8" rx="2"/>
  <rect x="500" y="490" width="80" height="20" fill="#94A3B8" rx="2"/>
  <rect x="600" y="490" width="60" height="20" fill="#94A3B8" rx="2"/>
  
  <text x="400" y="300" font-family="Arial, sans-serif" font-size="24" fill="#64748B" text-anchor="middle">Screenshot Placeholder</text>
  <text x="400" y="330" font-family="Arial, sans-serif" font-size="16" fill="#94A3B8" text-anchor="middle">Replace with actual screenshot</text>
</svg>
